<svg width="24" height="24" fill="none" xmlns="http://www.w3.org/2000/svg"><path fill-rule="evenodd" clip-rule="evenodd" d="M12.5 10.257a1.743 1.743 0 1 0 0 3.486 1.743 1.743 0 0 0 0-3.486zM9.757 12a2.743 2.743 0 1 1 5.486 0 2.743 2.743 0 0 1-5.486 0z" fill="#B5A191"/><path fill-rule="evenodd" clip-rule="evenodd" d="M12.5 8.947a3.054 3.054 0 1 0 0 6.107 3.054 3.054 0 0 0 0-6.107zm-4.053 3.054a4.054 4.054 0 1 1 8.107 0 4.054 4.054 0 0 1-8.107 0zM1.5 8.447v-3h1v3h-1zM1.5 18.447v-3h1v3h-1z" fill="#B5A191"/><path fill-rule="evenodd" clip-rule="evenodd" d="M3 2.5h19v19H3v-19zm1 1v17h17v-17H4z" fill="#B5A191"/></svg>